<svg width="364" height="550" viewBox="0 0 364 550" fill="none" xmlns="http://www.w3.org/2000/svg">
<path d="M127.25 292.822H126.219C117.172 293.116 108.418 289.596 102.091 283.123C100.433 281.212 100.632 278.32 102.539 276.662C104.445 275 107.338 275.2 109 277.106C113.668 281.595 119.971 283.97 126.439 283.685C134.171 284.166 141.805 281.77 147.883 276.964C149.618 275.139 152.506 275.069 154.331 276.809C156.156 278.544 156.225 281.432 154.486 283.257C146.97 289.82 137.217 293.246 127.25 292.822L127.25 292.822Z" fill="black"/>
<path d="M123.788 264.05C119.201 264.013 114.801 262.241 111.47 259.084C107.644 256.09 105.848 251.185 106.834 246.431C107.612 244.093 110.105 242.793 112.463 243.494C114.826 244.199 116.203 246.647 115.576 249.03C116.032 250.749 117.124 252.232 118.631 253.173C120.92 254.953 123.972 255.41 126.681 254.379C129.031 253.458 131.675 254.619 132.596 256.97C133.512 259.316 132.351 261.964 130.001 262.881C128.021 263.655 125.915 264.05 123.788 264.05L123.788 264.05Z" fill="black"/>
<path d="M203.264 178.64C202.331 178.64 201.419 178.351 200.657 177.817C186.293 169.649 168.801 169.197 154.034 176.611C153.105 177.442 151.875 177.854 150.632 177.752C149.39 177.654 148.241 177.047 147.455 176.078C146.669 175.112 146.314 173.862 146.473 172.627C146.632 171.389 147.292 170.273 148.294 169.531C157.113 164.582 167.082 162.052 177.193 162.19C187.303 162.333 197.199 165.14 205.875 170.334C207.509 171.474 208.214 173.544 207.615 175.442C207.02 177.344 205.256 178.636 203.264 178.64L203.264 178.64Z" fill="black"/>
<path d="M92.3873 179.829C91.2956 179.829 90.2405 179.438 89.4135 178.725C81.0625 171.543 55.651 174.39 52.001 177.181C49.9845 178.692 47.1248 178.285 45.6135 176.268C44.1022 174.252 44.5095 171.392 46.526 169.881C53.9523 164.316 83.9834 161.978 95.3974 171.808C96.8436 173.05 97.365 175.063 96.701 176.851C96.037 178.639 94.3302 179.829 92.4236 179.829H92.3873Z" fill="black"/>
<path d="M192.533 247.124H144.773C137.212 247.124 131.086 240.993 131.086 233.437V207.475C131.086 199.914 137.212 193.787 144.773 193.787H192.533C200.094 193.787 206.22 199.914 206.22 207.475V233.465C206.204 241.013 200.081 247.124 192.533 247.124ZM144.773 202.912C142.252 202.912 140.211 204.953 140.211 207.475V233.465C140.211 234.675 140.691 235.832 141.547 236.687C142.402 237.547 143.563 238.027 144.773 238.027H192.533C193.743 238.027 194.904 237.547 195.759 236.687C196.615 235.832 197.095 234.675 197.095 233.465V207.475C197.095 206.265 196.615 205.104 195.759 204.248C194.904 203.393 193.743 202.912 192.533 202.912H144.773Z" fill="black"/>
<path d="M92.8148 247.124H45.0468C37.486 247.124 31.3593 240.993 31.3593 233.437V207.475C31.3593 199.914 37.486 193.787 45.0468 193.787H92.8148C100.376 193.787 106.502 199.914 106.502 207.475V233.465C106.49 241.013 100.363 247.124 92.8148 247.124ZM45.0468 202.912C42.5251 202.912 40.4843 204.953 40.4843 207.475V233.465C40.4843 234.675 40.965 235.832 41.8204 236.687C42.6758 237.547 43.8368 238.027 45.0468 238.027H92.8148C94.0248 238.027 95.1856 237.547 96.0412 236.687C96.8967 235.832 97.3773 234.675 97.3773 233.465V207.475C97.3773 206.265 96.8966 205.104 96.0412 204.248C95.1857 203.393 94.0248 202.912 92.8148 202.912H45.0468Z" fill="black"/>
<path d="M201.647 221.168C199.126 221.278 196.995 219.326 196.881 216.805C196.771 214.287 198.727 212.153 201.244 212.043L255.449 207.199C257.966 206.971 260.195 208.828 260.423 211.35C260.647 213.868 258.789 216.096 256.267 216.324L202.075 221.168H201.647Z" fill="black"/>
<path d="M135.624 228.28H101.935C99.417 228.28 97.3721 226.239 97.3721 223.717C97.3721 221.2 99.417 219.155 101.935 219.155H135.624C138.146 219.155 140.187 221.2 140.187 223.717C140.187 226.239 138.146 228.28 135.624 228.28Z" fill="black"/>
<path d="M188.591 202.73V214.866C188.591 219.554 184.794 223.355 180.105 223.355C175.421 223.355 171.62 219.554 171.62 214.866V202.73C171.62 198.045 175.421 194.245 180.105 194.245C184.794 194.245 188.591 198.045 188.591 202.73Z" fill="black"/>
<path d="M80.4361 194.241H80.5257C85.2145 194.241 89.0111 198.93 89.0111 202.726V214.862C89.0111 219.551 85.2104 223.348 80.5257 223.348H80.4361C75.7473 223.348 71.9507 218.659 71.9507 214.862V202.726C71.9507 198.038 75.7514 194.241 80.4361 194.241Z" fill="black"/>
<path d="M271.425 235.768C272.615 236.04 273.861 235.825 274.888 235.173C275.914 234.517 276.639 233.482 276.9 232.293C278.525 227.47 283.259 224.402 288.322 224.891C290.828 225.192 293.101 223.408 293.402 220.907C293.704 218.406 291.924 216.133 289.418 215.831C284.709 215.334 279.98 216.515 276.057 219.171C272.138 221.827 269.283 225.783 267.995 230.337C267.454 232.782 268.985 235.205 271.425 235.767L271.425 235.768Z" fill="black"/>
<path d="M362.623 477.836C346.781 431.115 316.085 399.992 263.344 377.106H263.34C258.398 362.709 246.898 351.528 232.372 346.994C229.635 337.465 227.863 328.5 227.109 324.271H227.105C244.707 311.28 257.279 292.611 262.692 271.419C265.194 272.955 267.919 274.087 270.77 274.784C291.978 279.509 309.58 260.677 314.269 239.742C318.428 221.218 313.357 199.974 296.423 192.401C302.757 157.181 311.698 105.359 296.333 76.3936L296.329 76.3977C291.555 69.1099 283.994 64.1076 275.423 62.5631C266.709 59.8256 266.909 59.1576 267.386 57.4995C268.339 51.7394 267.597 45.8247 265.251 40.4801C262.904 35.1314 259.055 30.5851 254.171 27.387C249.176 23.8714 243.163 22.0994 237.061 22.3398C230.963 22.5842 225.109 24.8288 220.408 28.7273C218.375 30.0105 215.85 30.2508 213.609 29.375C212.591 29.1143 211.703 28.4829 211.12 27.603C210.802 21.9365 208.541 16.5466 204.72 12.347C200.895 8.14713 195.746 5.38918 190.133 4.5378C185.493 3.24643 180.556 3.54789 176.103 5.38919C171.655 7.23453 167.948 10.5098 165.577 14.7016C164.196 15.4023 162.591 15.5326 161.116 15.0682C159.324 10.4854 156.097 6.60721 151.914 4.01602C147.734 1.42515 142.83 0.256002 137.929 0.683782C133.22 0.675634 128.621 2.10958 124.755 4.7941C120.885 7.48269 117.935 11.2876 116.302 15.7034C115.821 16.1963 115.165 16.4774 114.477 16.4896C113.666 16.5711 113.438 16.2167 113.365 16.1352C110.151 12.2449 105.71 9.56441 100.777 8.52562C95.8401 7.48684 90.6991 8.15084 86.1899 10.4117C81.7375 12.4079 78.1037 15.8664 75.8958 20.217C73.6838 24.5636 73.0279 29.5375 74.0341 34.3122C73.5737 34.6178 73.036 34.7889 72.4861 34.8052C64.2084 32.0188 55.087 33.5586 48.1823 38.9114C42.3081 43.478 39.2895 50.8188 40.2549 58.2001C40.9393 64.8239 40.7763 66.5674 32.0424 71.3578C25.8342 75.0078 21.5815 81.2406 20.4448 88.3491C15.6094 110.933 30.2256 145.608 40.3206 159.964C40.1821 171.061 40.8216 183.033 41.5508 195.751C41.9786 203.206 42.4634 210.791 42.6752 218.307C44.6183 271.635 54.8025 306.681 74.6856 328.599H74.6816C92.724 347.155 117.821 357.127 143.677 356.019C144.378 356.019 145.29 355.966 146.252 355.893C146.508 357.135 146.724 358.374 146.899 359.543C131.579 365.861 118.334 376.351 108.672 389.818C107.275 391.753 105.198 394.328 102.497 397.64C57.3722 419.584 21.0276 451.55 5.18869 483.333C-5.26804 504.231 3.36369 516.138 12.4887 522.416C33.2843 537.016 73.7284 546.569 124.2 548.695H124.273H124.782L131.259 548.94C135.822 549.029 140.449 549.123 145.321 549.123C149.346 549.123 153.342 549.123 157.184 549.042C157.33 549.042 157.456 549.123 157.603 549.123C157.75 549.123 157.905 549.042 158.059 549.034C161.135 548.944 164.211 548.85 167.323 548.85C251.208 546.357 313.385 529.598 335.661 515.088C352.742 504.028 367.631 492.865 362.624 477.83L362.623 477.836ZM255.709 382.325C264.907 404.445 268.439 423.086 264.761 429.71C253.994 435.132 242.344 438.57 230.359 439.857C228.334 440.195 226.782 441.841 226.566 443.886C226.355 445.927 227.532 447.862 229.447 448.608C243.407 454.038 254.296 461.5 254.349 464.246C250.169 487.213 201.078 517.644 177.487 532.265C173.572 534.684 170.187 536.827 167.45 538.579V538.583C190.258 505.436 208.696 469.481 222.302 431.617C231.753 408.001 235.924 382.603 234.532 357.204C244.479 362.638 252.036 371.6 255.711 382.326L255.709 382.325ZM29.3465 90.2619C29.9617 85.732 32.5729 81.7154 36.4632 79.3119C47.5676 73.2055 50.4438 68.2524 49.2914 57.2127H49.2955C48.6885 52.9353 50.432 48.6662 53.858 46.0343C58.335 42.6369 64.197 41.6592 69.5332 43.415C73.2565 44.5068 77.2772 43.6105 80.1818 41.0442C82.5323 39.1377 83.6525 36.0987 83.1026 33.1208C81.5221 27.2466 84.4795 21.104 90.0564 18.6679C95.5354 15.8733 102.212 17.1484 106.278 21.7639C108.828 24.9333 112.995 26.3264 116.939 25.3203C120.834 24.6278 124.007 21.8088 125.152 18.0203C127.551 12.8793 132.753 9.63258 138.427 9.7426C144.774 9.16821 150.697 12.9812 152.799 18.998C154.542 22.5787 158.286 24.7459 162.262 24.473C166.894 25.084 171.432 22.8109 173.713 18.7332C176.951 13.9873 182.882 11.8854 188.386 13.5311C191.991 14.0199 195.315 15.739 197.796 18.4032C200.276 21.0633 201.759 24.5015 201.991 28.1311C202.44 32.2617 205.12 35.81 208.97 37.3661C211.63 38.6778 214.591 39.2604 217.553 39.0445C220.51 38.8286 223.358 37.8264 225.798 36.1441C228.947 33.3211 232.968 31.659 237.192 31.4309C241.417 31.2069 245.588 32.4289 249.022 34.9016C252.31 37.0485 254.95 40.0548 256.652 43.5907C258.359 47.1307 259.064 51.0659 258.693 54.9766C255.499 65.8818 265.883 69.1282 272.763 71.2838C278.976 72.2696 284.56 75.6386 288.333 80.6736C302.086 106.591 293.462 157.597 287.694 189.777C278.312 189.13 269.029 192.042 261.695 197.933C258.836 200.414 256.257 203.204 254.012 206.255C242.252 202.141 235.16 198.866 234.695 158.805C234.467 135.309 218.625 98.9839 185.303 95.6311V95.6351C175.281 95.3093 165.264 96.2747 155.492 98.5071C145.218 100.605 134.781 101.803 124.3 102.092C116.637 102.047 108.995 101.24 101.487 99.6925C94.6149 98.2545 87.6161 97.4968 80.5935 97.4397C62.9744 97.4397 50.481 113.245 45.0592 126.758C43.0631 132.114 41.784 137.712 41.2544 143.403C33.1967 127.307 26.3082 104.495 29.3471 90.2576L29.3465 90.2619ZM81.4404 322.444C63.0725 302.206 53.6462 268.997 51.7836 217.949C51.5188 210.368 51.0707 202.718 50.6429 195.19C49.8853 182.041 49.1723 169.64 49.4127 158.389C49.0298 148.791 50.4067 139.205 53.4741 130.101C56.9612 121.343 66.5786 106.515 80.531 106.515H80.527C86.9959 106.572 93.4448 107.273 99.7708 108.613C107.812 110.267 115.992 111.122 124.201 111.167C135.232 110.8 146.214 109.554 157.051 107.444C166.029 105.411 175.224 104.49 184.426 104.706C214.856 107.774 225.423 143.194 225.578 158.898C226.099 203.929 235.852 209.607 251.739 215.144L254.322 216.056V216.06C254.501 216.097 254.68 216.125 254.86 216.142C255.161 216.219 255.467 216.264 255.772 216.28C256.045 216.276 256.318 216.252 256.587 216.207C257.463 216.064 258.277 215.669 258.929 215.074C259.145 214.875 259.336 214.651 259.495 214.406C259.63 214.276 259.752 214.133 259.862 213.979C261.948 210.614 264.53 207.583 267.529 204.992C273.566 200.157 281.347 198.063 288.997 199.216C289.372 199.297 289.738 199.407 290.093 199.542C304.693 203.811 308.888 222.427 305.43 237.777C301.78 253.982 288.357 269.347 272.91 265.917C269.076 264.781 265.54 262.809 262.554 260.153C261.271 259.163 259.556 258.927 258.057 259.538C256.554 260.145 255.487 261.506 255.254 263.107C251.001 285.573 238.141 305.489 219.41 318.606C217.198 320.134 214.86 321.47 212.42 322.603C210.139 323.67 209.153 326.387 210.22 328.672C211.291 330.954 214.009 331.939 216.29 330.872C217.149 330.469 217.952 330.025 218.771 329.585C219.838 335.06 221.647 343.272 224.246 351.897C228.462 369.234 224.755 396.235 213.833 427.916C203.56 442.606 179.953 448.403 161.74 446.459C149.678 446.439 138.467 440.238 132.039 430.034C135.066 415.874 140.826 402.439 148.994 390.482C154.762 382.506 157.398 372.685 156.412 362.892V362.598C156.412 362.496 156.359 362.452 156.347 362.362C156.351 362.321 156.351 362.281 156.347 362.244C156.127 359.706 155.752 357.188 155.235 354.695C162.632 353.604 169.892 351.709 176.878 349.049C178.011 348.564 178.899 347.644 179.343 346.499C179.787 345.35 179.75 344.071 179.237 342.951C178.723 341.835 177.783 340.971 176.626 340.556C175.465 340.14 174.19 340.214 173.086 340.751C165.305 343.542 157.235 345.44 149.031 346.401C147.218 346.695 145.389 346.862 143.556 346.902C120.316 347.945 97.7318 339.057 81.4414 322.449L81.4404 322.444ZM147.405 369.156C146.957 375.006 144.892 380.619 141.446 385.37C132.63 398.352 126.405 412.916 123.114 428.257C122.784 428.876 122.605 429.565 122.597 430.266V430.457C116.653 466.517 117.729 503.388 125.762 539.039C114.421 526.521 87.4371 495.321 88.7897 466.76C88.9649 463.367 100.086 456.075 112.148 451.459V451.455C114.152 450.689 115.35 448.632 115.028 446.514C114.71 444.391 112.954 442.782 110.815 442.644C103.752 442.721 96.8016 440.843 90.7405 437.214C88.5611 429.331 102.338 412.275 109.439 403.504C112.176 400.192 114.486 397.316 116.046 395.117L116.042 395.121C124.108 383.934 134.908 375.009 147.405 369.188L147.405 369.156ZM13.346 487.448C26.3202 461.425 54.1884 435.134 89.5841 414.839H89.5881C83.7465 421.76 80.9968 430.766 81.9745 439.769C83.3962 444.707 89.0545 447.644 95.2062 449.395C87.6047 453.701 80.0316 459.653 79.6937 466.395C78.4146 492.96 96.685 519.365 113.566 539.04C52.738 535.154 26.4142 521.1 17.6719 514.969C11.9158 510.973 5.18188 503.772 13.346 487.448ZM145.309 540.071C141.798 540.071 138.51 539.998 135.206 539.945H135.211C128.069 507.914 126.22 474.933 129.736 442.307C138.245 450.153 149.204 454.822 160.761 455.527C163.404 455.804 166.064 455.938 168.725 455.938C182.127 456.048 195.326 452.634 206.996 446.039C193.301 479.199 175.943 510.72 155.249 540.027C152.006 540.067 148.719 540.092 145.386 540.1L145.309 540.071ZM330.729 507.503C310.956 520.396 257.302 535.151 183.811 539.094C220.209 516.474 258.893 490.422 263.362 465.857C264.73 458.138 255.332 451.082 245.934 446.075C257.634 443.338 269.851 439.415 272.715 434.213C278.447 423.874 273.628 404.594 268.279 389.5C313.146 410.871 339.963 439.297 354.009 480.75C356.274 487.712 349.976 494.968 330.724 507.502L330.729 507.503Z" fill="black"/>
</svg>
