<?xml version="1.0" encoding="utf-8"?>
<!-- Generator: Adobe Illustrator 23.0.1, SVG Export Plug-In . SVG Version: 6.00 Build 0)  -->
<svg version="1.1" id="Layer_1" xmlns="http://www.w3.org/2000/svg" xmlns:xlink="http://www.w3.org/1999/xlink" x="0px" y="0px"
	 viewBox="0 0 1000 1000" style="enable-background:new 0 0 1000 1000;" xml:space="preserve">
<style type="text/css">
	.st0{fill:#11B470;}
	.st1{fill:#2F94D1;}
	.st2{fill:#F15853;}
	.st3{fill:#34B1E6;}
	.st4{fill:#00AB64;}
	.st5{fill:#43BA89;}
	.st6{fill:#3CB981;}
	.st7{fill:#35ADE3;}
	.st8{fill:#F3716D;}
	.st9{fill:#2D8DCC;}
	.st10{fill:#F04945;}
	.st11{fill:#F16561;}
	.st12{fill:#B72025;}
	.st13{fill:#B22024;}
	.st14{fill:#12181B;fill-opacity:0.2;}
	.st15{fill:#05733B;}
	.st16{fill:#086936;}
	.st17{fill:#255DAB;}
	.st18{fill:#2962AE;}
	.st19{opacity:0.78;fill:#F9BCB8;enable-background:new    ;}
	.st20{opacity:0.78;fill:#68CCE9;enable-background:new    ;}
	.st21{opacity:0.78;fill:#68C6B4;enable-background:new    ;}
</style>
<g>
	<polygon class="st0" points="704.1,384.6 906.7,504.4 906.7,741.1 704.1,857.9 500,741.1 500,504.4 	"/>
	<polygon class="st1" points="500,26.7 704.1,148 704.1,384.6 500,500 295.9,384.6 295.9,148 	"/>
	<polygon class="st1" points="704.1,148 906.7,267.8 906.7,504.4 704.1,621.3 500,504.4 500,267.8 	"/>
	<polygon class="st2" points="295.9,148 500,267.8 500,504.4 295.9,621.3 93.3,504.4 93.3,267.8 	"/>
	<polygon class="st2" points="295.9,384.6 500,504.4 500,741.1 295.9,857.9 93.3,741.1 93.3,504.4 	"/>
	<polygon class="st0" points="500,500 704.1,621.3 704.1,857.9 500,973.3 295.9,857.9 295.9,621.3 	"/>
	<path class="st3" d="M704.1,148L500,267.8L295.9,148L500,26.7L704.1,148z M906.7,267.8L702.6,389.1L500,267.8l204.1-121.3
		L906.7,267.8L906.7,267.8z"/>
	<polygon class="st4" points="500,736.6 500,500 295.9,621.3 295.9,857.9 	"/>
	<polygon class="st5" points="704.1,621.3 500,736.6 295.9,621.3 500,500 	"/>
	<polygon class="st6" points="500,736.6 295.9,621.3 500,500 	"/>
	<polygon class="st7" points="500,267.8 295.9,148 500,26.7 	"/>
	<polygon class="st8" points="500,267.8 295.9,389.1 93.3,267.8 295.9,148 	"/>
	<polygon class="st9" points="906.7,504.4 704.1,621.3 500,500 704.1,389.1 	"/>
	<polygon class="st10" points="292.9,855 93.3,739.6 292.9,618.3 	"/>
	<polygon class="st11" points="295.9,389.1 295.9,148 500,267.8 500,500 	"/>
	<polygon class="st12" points="500,500 500,267.8 295.9,389.1 295.9,621.3 	"/>
	<polygon class="st13" points="500,500 295.9,389.1 500,267.8 	"/>
	<polygon class="st14" points="906.7,741.1 704.1,621.3 906.7,504.4 	"/>
	<path class="st15" d="M704.1,857.9V621.3L500,736.6v236.6L704.1,857.9L704.1,857.9z M906.7,741.1V504.4L702.6,619.8v236.6
		L906.7,741.1z"/>
	<polygon class="st16" points="906.7,741.1 704.1,621.3 906.7,504.4 	"/>
	<polygon class="st17" points="906.7,504.4 906.7,267.8 704.1,389.1 704.1,621.3 	"/>
	<polygon class="st18" points="906.7,504.4 704.1,389.1 906.7,267.8 	"/>
	<path class="st19" d="M93.3,267.8l204.1,115.4L500,267.8L301.8,390.6l-4.4,229.2l0,0l-4.4-229.2L93.3,267.8z"/>
	<polygon class="st20" points="500,267.8 704.1,384.6 906.7,267.8 708.5,390.6 704.1,621.3 698.2,390.6 	"/>
	<path class="st21" d="M295.9,621.3L500,732.2l204.1-110.9L505.9,739.6L500,973.3l0,0l-4.4-233.7L295.9,621.3L295.9,621.3z"/>
</g>
</svg>
