<?xml version="1.0" standalone="no"?>
<!DOCTYPE svg PUBLIC "-//W3C//DTD SVG 20010904//EN"
 "http://www.w3.org/TR/2001/REC-SVG-20010904/DTD/svg10.dtd">
<svg version="1.0" xmlns="http://www.w3.org/2000/svg"
 width="300.000000pt" height="300.000000pt" viewBox="0 0 300.000000 300.000000"
 preserveAspectRatio="xMidYMid meet">
<metadata>
Created by potrace 1.16, written by Peter Selinger 2001-2019
</metadata>
<g transform="translate(0.000000,300.000000) scale(0.100000,-0.100000)"
fill="#000000" stroke="none">
<path d="M1391 2983 c-123 -61 -179 -222 -121 -346 20 -42 100 -127 121 -127
4 0 9 -48 11 -107 3 -97 6 -115 35 -175 61 -128 169 -208 315 -234 93 -16 105
-22 146 -68 49 -56 55 -150 14 -206 -25 -33 -76 -67 -121 -80 -20 -6 -155 -22
-301 -35 -302 -29 -368 -44 -462 -108 -120 -83 -174 -193 -166 -346 9 -192
132 -328 333 -366 114 -22 158 -52 190 -127 17 -41 21 -168 5 -168 -5 0 -29
-17 -52 -37 -112 -102 -119 -277 -16 -382 54 -55 97 -71 191 -71 75 0 88 3
129 29 80 51 127 132 128 222 0 86 -46 177 -115 222 -32 21 -33 21 -37 119 -4
88 -9 106 -42 172 -65 133 -172 210 -325 235 -78 13 -116 33 -147 81 -52 78
-31 183 46 233 59 40 95 47 370 73 146 13 290 32 320 40 137 39 249 133 290
242 18 48 21 74 18 162 -3 91 -7 113 -31 162 -34 69 -102 140 -167 173 -25 13
-84 31 -130 39 -45 9 -98 25 -117 37 -52 33 -84 95 -90 182 l-6 74 45 31 c133
91 156 269 51 391 -54 63 -97 81 -195 81 -57 0 -94 -6 -117 -17z"/>
<path d="M870 2253 c0 -63 28 -171 62 -246 36 -79 80 -138 183 -249 l70 -75
70 8 c39 4 96 11 128 14 31 4 57 10 57 14 0 5 -57 71 -126 147 -70 76 -139
157 -155 180 -35 51 -69 151 -69 204 l0 40 -110 0 -110 0 0 -37z"/>
<path d="M1653 1298 c-51 -6 -93 -14 -93 -20 0 -5 63 -79 139 -163 154 -170
187 -225 204 -335 l11 -70 109 0 109 0 -7 67 c-17 162 -73 275 -211 427 -108
120 -85 112 -261 94z"/>
</g>
</svg>
